<?xml version="1.0" encoding="utf-8"?>
<!-- Generator: Adobe Illustrator 25.2.1, SVG Export Plug-In . SVG Version: 6.00 Build 0)  -->
<svg version="1.1" id="Layer_1" xmlns="http://www.w3.org/2000/svg" xmlns:xlink="http://www.w3.org/1999/xlink" x="0px" y="0px"
	 viewBox="0 0 200 200" style="enable-background:new 0 0 200 200;" xml:space="preserve">
<style type="text/css">
	.st0{fill:#F3971B;}
</style>
<g id="Automation_Blocks_Final">
	<path class="st0" d="M153,91l15.6,15.1H190c0.1-1.7,0.1-3.3,0.1-5c0-8.7-1.3-17.1-3.6-25.1h-18L153,91z"/>
	<path class="st0" d="M156.6,118.9l-23.3,22.7l-37.4-0.5L74,119.7l-28.6-0.2l-4.1-4.5V67.6l4.1-4.7l31.1-0.4l19.5,20l40.9-0.8
		l20-18.8c0,0,9.6,0,24.9,0c-14.4-30.7-45.5-52-81.7-52c-32.1,0-46.7,0-62.2,0c-18.2,0-27.9,9.7-27.9,27.9c0,15.3,0,33.3,0,62.3
		c0,49.8,40.4,90.1,90.1,90.1c43.7,0,80-31,88.4-72.2L156.6,118.9z"/>
</g>
</svg>
